<svg width="21" height="23" viewBox="0 0 21 23" fill="none" xmlns="http://www.w3.org/2000/svg">
<path d="M7.18005 18.3264C8.28462 18.3264 9.18005 19.2218 9.18005 20.3264C9.18005 21.431 8.28462 22.3264 7.18005 22.3264C6.07548 22.3264 5.18005 21.431 5.18005 20.3264C5.18005 19.2218 6.07548 18.3264 7.18005 18.3264ZM15.1801 18.3264C16.2846 18.3264 17.1801 19.2218 17.1801 20.3264C17.1801 21.431 16.2846 22.3264 15.1801 22.3264C14.0755 22.3264 13.1801 21.431 13.1801 20.3264C13.1801 19.2218 14.0755 18.3264 15.1801 18.3264ZM19.4008 8.32639C19.8625 8.32639 20.2164 8.70456 20.1771 9.15061L19.8529 13.6789C19.7448 15.1335 18.4477 16.3264 16.974 16.3264H6.04919C4.36915 16.3264 3.05227 14.9104 3.18982 13.2522L3.54333 9.0344C3.58263 8.63687 3.91689 8.32646 4.32947 8.32639H19.4008ZM2.6322 0.326389C3.34118 0.326389 4.03044 0.636346 4.52283 1.16623C4.82806 1.51616 5.02491 1.93629 5.12341 2.37619H17.2269C18.97 2.37619 20.2992 3.81625 20.1713 5.58615C20.1417 6.006 19.7976 6.32615 19.3842 6.32639H4.30603C3.84334 6.3262 3.47954 5.93592 3.51892 5.46604L3.71521 3.01682C3.73491 2.70682 3.63686 2.406 3.43005 2.176C3.22326 1.95608 2.93743 1.82639 2.6322 1.82639H0.918335C0.514709 1.82621 0.180054 1.48628 0.180054 1.07639C0.180054 0.666498 0.514709 0.326569 0.918335 0.326389H2.6322Z" fill="white"/>
</svg>
