<svg width="25" height="24" viewBox="0 0 25 24" fill="none" xmlns="http://www.w3.org/2000/svg">
<path d="M8.52295 19C9.48945 19 10.2729 19.7835 10.2729 20.75C10.2729 21.7165 9.48945 22.5 8.52295 22.5C7.55645 22.5 6.77295 21.7165 6.77295 20.75C6.77295 19.7835 7.55645 19 8.52295 19ZM16.5229 19C17.4894 19 18.2729 19.7835 18.2729 20.75C18.2729 21.7165 17.4894 22.5 16.5229 22.5C15.5565 22.5 14.7729 21.7165 14.7729 20.75C14.7729 19.7835 15.5565 19 16.5229 19ZM20.7827 8.75C21.2526 8.75 21.6125 9.13977 21.5728 9.59961L21.2427 14.2695C21.1327 15.7695 19.813 17 18.313 17H7.19287C5.48297 16.9999 4.14278 15.54 4.28271 13.8301L4.64307 9.48047C4.68306 9.07051 5.02293 8.75007 5.44287 8.75H20.7827ZM4.01318 1.25C4.7331 1.25007 5.43316 1.5599 5.93311 2.08984C6.24304 2.43977 6.44246 2.85991 6.54248 3.2998H18.8325C20.6024 3.2998 21.9526 4.73987 21.8228 6.50977C21.7928 6.92977 21.4429 7.25 21.0229 7.25H5.71338C5.24338 7.25 4.8726 6.85965 4.9126 6.38965L5.11279 3.94043C5.13279 3.63043 5.03275 3.32961 4.82275 3.09961C4.61283 2.87985 4.32295 2.75007 4.01318 2.75H2.27295C1.86295 2.75 1.52295 2.41 1.52295 2C1.52295 1.59 1.86295 1.25 2.27295 1.25H4.01318Z" fill="#D9FF5A"/>
</svg>
