<svg width="95" height="199" viewBox="0 0 95 199" fill="none" xmlns="http://www.w3.org/2000/svg">
<path d="M87.8756 187.638L89.1112 188.603L84.186 194.908L82.7991 193.824L86.0793 189.625L79.584 191.312L78.3484 190.347L83.2737 184.043L84.6606 185.126L81.3803 189.325L87.8756 187.638Z" fill="white"/>
<path d="M77.9928 179.143C78.6247 179.733 79.0367 180.401 79.2288 181.149C79.4137 181.905 79.2882 182.634 78.8524 183.336L77.5301 182.103C77.824 181.444 77.6473 180.812 76.9998 180.208C76.6336 179.881 76.2879 179.705 75.9624 179.678C75.6292 179.645 75.3498 179.749 75.1243 179.991C74.8915 180.24 74.803 180.515 74.8587 180.815C74.9072 181.123 75.0953 181.429 75.4229 181.735L76.1133 182.379L75.2295 183.327L74.5625 182.705C74.2894 182.45 74.0203 182.308 73.7552 182.28C73.4828 182.259 73.2374 182.366 73.0192 182.6C72.8082 182.826 72.7304 183.082 72.7856 183.367C72.8336 183.659 73.0058 183.944 73.3022 184.22C73.8873 184.766 74.4758 184.87 75.0678 184.532L76.355 185.733C75.6923 186.208 75.0041 186.383 74.2903 186.257C73.5687 186.124 72.9114 185.781 72.3185 185.228C71.6242 184.581 71.2426 183.919 71.1737 183.242C71.0975 182.573 71.274 182.008 71.7032 181.548C72.2125 181.002 72.805 180.789 73.4809 180.908C73.1722 180.066 73.3162 179.326 73.9127 178.686C74.3637 178.202 74.9711 177.981 75.7348 178.022C76.4834 178.064 77.2361 178.438 77.9928 179.143Z" fill="white"/>
<path d="M73.3622 174.508L67.6075 180.065L63.9619 176.29L65.0899 175.2L67.5128 177.71L72.1396 173.242L73.3622 174.508Z" fill="white"/>
<path d="M62.6874 164.598C63.816 164.676 64.7687 165.163 65.5454 166.056C66.3222 166.95 66.6746 167.965 66.6027 169.102C66.5158 170.237 66.0335 171.186 65.1561 171.949C64.2786 172.712 63.2755 173.054 62.1469 172.975C61.0033 172.895 60.043 172.408 59.2663 171.515C58.4895 170.621 58.1446 169.607 58.2316 168.471C58.3035 167.334 58.7782 166.385 59.6557 165.622C60.5331 164.859 61.5437 164.518 62.6874 164.598ZM64.3138 167.127C63.8589 166.604 63.3034 166.33 62.6472 166.307C61.976 166.283 61.3707 166.505 60.8313 166.974C60.2919 167.443 59.9916 168.008 59.9302 168.669C59.8538 169.329 60.0431 169.921 60.498 170.444C60.9598 170.975 61.5264 171.253 62.1976 171.277C62.8538 171.301 63.4515 171.078 63.9909 170.609C64.5303 170.14 64.8381 169.576 64.9145 168.916C64.9759 168.254 64.7756 167.658 64.3138 167.127Z" fill="white"/>
<path d="M60.295 160.123L55.2266 164.083L56.7041 165.974L55.4685 166.939L51.3609 161.682L52.5965 160.716L54.143 162.696L59.2115 158.736L60.295 160.123Z" fill="white"/>
<path d="M50.9706 148.918C52.0848 149.114 52.9814 149.698 53.6605 150.667C54.3397 151.637 54.584 152.684 54.3937 153.807C54.1885 154.927 53.6097 155.821 52.6573 156.487C51.7049 157.154 50.6716 157.389 49.5574 157.193C48.4284 156.994 47.5243 156.409 46.8452 155.44C46.1661 154.47 45.9291 153.425 46.1343 152.304C46.3247 151.181 46.896 150.287 47.8484 149.62C48.8008 148.953 49.8416 148.719 50.9706 148.918ZM52.3237 151.604C51.926 151.036 51.4021 150.706 50.7519 150.614C50.0869 150.52 49.4617 150.678 48.8763 151.088C48.2909 151.497 47.9331 152.028 47.803 152.679C47.658 153.327 47.7844 153.936 48.1821 154.504C48.5859 155.08 49.1203 155.416 49.7853 155.51C50.4354 155.602 51.0532 155.443 51.6386 155.033C52.2241 154.623 52.5892 154.094 52.7342 153.445C52.8643 152.794 52.7275 152.18 52.3237 151.604Z" fill="white"/>
<path d="M50.091 145.32L43.2337 149.44L41.3548 146.314C40.8823 145.527 40.7072 144.811 40.8294 144.165C40.9515 143.52 41.2915 143.029 41.8492 142.694C42.3338 142.403 42.8624 142.34 43.4351 142.506C43.3906 141.625 43.7295 140.967 44.4518 140.533C45.0279 140.187 45.6361 140.101 46.2764 140.276C46.9077 140.457 47.4732 140.963 47.9732 141.796L50.091 145.32ZM47.9091 144.578L46.7059 142.576C46.5247 142.274 46.3087 142.08 46.058 141.994C45.7927 141.905 45.5275 141.94 45.2623 142.099C44.988 142.264 44.8327 142.482 44.7962 142.752C44.7452 143.02 44.8103 143.304 44.9916 143.606L46.1947 145.608L47.9091 144.578ZM45.0976 146.267L44.0922 144.594C43.9439 144.347 43.7608 144.177 43.5431 144.084C43.3107 143.987 43.0574 144.021 42.7831 144.186C42.2711 144.494 42.1909 144.94 42.5425 145.525L43.5478 147.198L45.0976 146.267Z" fill="white"/>
<path d="M44.5416 135.731C44.7268 136.079 44.8432 136.344 44.8907 136.524L43.5486 137.237C43.4573 137.02 43.3841 136.86 43.329 136.756C43.1737 136.464 42.9644 136.298 42.7009 136.256C42.428 136.22 42.0467 136.333 41.5569 136.593L37.0645 138.982L34.0073 133.232L41.0709 129.476L41.8972 131.03L36.218 134.05L37.6227 136.691L40.9708 134.911C41.7714 134.486 42.4865 134.365 43.1162 134.55C43.7409 134.725 44.2161 135.119 44.5416 135.731Z" fill="white"/>
<path d="M37.3916 124.006C37.8965 125.089 37.9584 126.143 37.5772 127.168C37.1864 128.198 36.4448 128.967 35.3524 129.477C34.26 129.986 33.2009 130.062 32.1751 129.705C31.1397 129.352 30.3628 128.62 29.8444 127.508C29.3214 126.387 29.2915 125.3 29.7545 124.249C30.2078 123.202 31.0615 122.433 32.3157 121.942L35.0069 127.713C35.5586 127.433 35.9283 127.001 36.116 126.42C36.3036 125.838 36.251 125.233 35.958 124.604C35.5432 123.715 34.9209 123.264 34.0909 123.25L33.3133 121.583C34.1227 121.476 34.9011 121.631 35.6484 122.047C36.3958 122.464 36.9769 123.117 37.3916 124.006ZM31.1987 126.929C31.4422 127.451 31.8016 127.831 32.2771 128.068C32.7384 128.3 33.2646 128.343 33.8555 128.197L31.9825 124.181C31.4759 124.558 31.1658 124.991 31.0522 125.479C30.929 125.972 30.9778 126.456 31.1987 126.929Z" fill="white"/>
<path d="M35.0275 116.782L27.61 119.779L26.9507 118.147L29.888 116.96L28.4435 113.385L25.5062 114.572L24.8469 112.94L32.2644 109.943L32.9237 111.575L29.8973 112.798L31.3418 116.373L34.3682 115.15L35.0275 116.782Z" fill="white"/>
<path d="M29.7767 104.817L30.2872 106.3L22.7231 108.904L22.1501 107.24L27.1878 105.506L20.8217 103.382L20.3112 101.9L27.8754 99.2953L28.4484 100.959L23.4107 102.694L29.7767 104.817Z" fill="white"/>
<path d="M25.6986 91.3872C26.0279 92.5356 25.9242 93.5862 25.3874 94.5391C24.8403 95.4949 23.9874 96.139 22.8288 96.4712C21.6702 96.8034 20.6122 96.7129 19.655 96.1995C18.6875 95.6891 18.0347 94.8443 17.6965 93.6651C17.3555 92.4757 17.4958 91.398 18.1176 90.4318C18.7292 89.4686 19.6926 88.8428 21.0081 88.5544L22.7634 94.6757C23.3522 94.4846 23.7848 94.1165 24.0612 93.5712C24.3376 93.0259 24.3802 92.42 24.1891 91.7535C23.9186 90.8102 23.3745 90.2671 22.5568 90.1243L22.0497 88.3556C22.8658 88.3768 23.6104 88.6515 24.2834 89.1798C24.9564 89.7081 25.4282 90.4439 25.6986 91.3872ZM19.1247 93.3055C19.2835 93.8592 19.5792 94.2904 20.0117 94.5992C20.431 94.9006 20.9439 95.0254 21.5505 94.9735L20.3288 90.7132C19.7694 91.0068 19.3954 91.3859 19.2069 91.8505C19.0081 92.3181 18.9807 92.8031 19.1247 93.3055Z" fill="white"/>
<path d="M22.7854 79.5553L14.9602 81.2186L14.5943 79.4971L17.6931 78.8384L16.8914 75.0667L13.7926 75.7253L13.4267 74.0038L21.2519 72.3405L21.6178 74.0621L18.4251 74.7407L19.2268 78.5124L22.4195 77.8338L22.7854 79.5553Z" fill="white"/>
<path d="M19.5963 64.8456C19.7665 65.9202 19.5096 66.8897 18.8257 67.754C18.1402 68.6077 17.2285 69.1247 16.0907 69.3049C14.9529 69.4851 13.926 69.2752 13.0102 68.6751C12.0927 68.0644 11.5489 67.2218 11.3787 66.1472C11.2936 65.6099 11.3363 65.0955 11.5069 64.6041C11.6669 64.1144 11.8963 63.7217 12.195 63.426L11.1362 63.5937L10.8609 61.8553L18.7624 60.6039L19.0377 62.3422L17.9789 62.5099C18.3545 62.6988 18.6992 63.0006 19.0133 63.4152C19.3168 63.8315 19.5112 64.3083 19.5963 64.8456ZM17.5068 66.5859C17.9213 66.0667 18.0744 65.4647 17.9659 64.7799C17.8574 64.0951 17.5258 63.5698 16.9711 63.2041C16.4164 62.8384 15.7809 62.7122 15.0645 62.8257C14.3481 62.9392 13.7826 63.2555 13.368 63.7748C12.9535 64.294 12.8005 64.896 12.9089 65.5808C13.0174 66.2656 13.349 66.7909 13.9037 67.1566C14.4584 67.5223 15.0939 67.6485 15.8103 67.535C16.5268 67.4215 17.0922 67.1052 17.5068 66.5859Z" fill="white"/>
<path d="M18.0451 48.0909C18.1204 48.9516 17.9792 49.7242 17.6215 50.4086C17.2531 51.094 16.6721 51.5517 15.8785 51.7817L15.7209 49.9806C16.3805 49.6873 16.6718 49.0997 16.5946 48.2178C16.5412 47.7299 16.4024 47.3673 16.1782 47.1299C15.9531 46.8819 15.6758 46.7723 15.3464 46.8012C15.0064 46.8309 14.7567 46.9759 14.5974 47.2361C14.4276 47.4972 14.3621 47.8509 14.4012 48.2972L14.4835 49.2376L13.1924 49.3506L13.1129 48.4421C13.0804 48.0702 12.9751 47.7849 12.7971 47.5863C12.6085 47.3887 12.3548 47.3038 12.036 47.3317C11.7279 47.3587 11.499 47.4965 11.3495 47.7451C11.1893 47.9947 11.1268 48.3214 11.1622 48.7252C11.2319 49.5221 11.5997 49.9932 12.2655 50.1384L12.4189 51.8917C11.608 51.802 10.9795 51.4715 10.5333 50.9002C10.0862 50.3183 9.82738 49.6236 9.75673 48.816C9.67399 47.8703 9.83345 47.1229 10.2351 46.5738C10.6262 46.0256 11.1352 45.7241 11.7621 45.6693C12.5059 45.6042 13.0889 45.8423 13.511 46.3835C13.8451 45.5513 14.4478 45.097 15.3191 45.0208C15.9779 44.9631 16.5773 45.2051 17.1172 45.7468C17.6456 46.2788 17.9549 47.0601 18.0451 48.0909Z" fill="white"/>
<path d="M17.1831 36.9585C17.24 38.045 16.8832 38.9823 16.1127 39.7704C15.3417 40.5478 14.381 40.9667 13.2306 41.027C12.0801 41.0873 11.0809 40.7711 10.2328 40.0786C9.38418 39.3753 8.93139 38.4805 8.87445 37.394C8.84598 36.8507 8.94224 36.3437 9.16323 35.8728C9.37358 35.4025 9.64276 35.0359 9.97078 34.773L8.90025 34.8291L8.80814 33.0715L16.7972 32.6528L16.8893 34.4104L15.8188 34.4665C16.1725 34.6937 16.4838 35.0298 16.7528 35.475C17.0112 35.9208 17.1546 36.4153 17.1831 36.9585ZM14.9231 38.4709C15.3897 37.9978 15.6048 37.4151 15.5685 36.7227C15.5322 36.0303 15.2573 35.4733 14.7439 35.0516C14.2305 34.6299 13.6116 34.438 12.8872 34.476C12.1629 34.5139 11.5675 34.7694 11.1009 35.2425C10.6344 35.7156 10.4192 36.2983 10.4555 36.9907C10.4918 37.6831 10.7667 38.2401 11.2801 38.6618C11.7935 39.0835 12.4124 39.2754 13.1368 39.2374C13.8611 39.1995 14.4566 38.944 14.9231 38.4709Z" fill="white"/>
<path d="M16.272 23.5045L12.864 27.0565L16.272 27.0565L16.272 28.8165L8.27197 28.8165L8.27197 27.0565L11.696 27.0565L8.27197 23.9045L8.27197 21.7605L12.208 25.3925L16.272 21.1845L16.272 23.5045Z" fill="white"/>
<path d="M16.5815 15.9287C16.5435 17.016 16.1064 17.9187 15.2702 18.6366C14.4343 19.3438 13.4407 19.6774 12.2894 19.6372C11.1381 19.597 10.1702 19.1949 9.38574 18.4311C8.60162 17.6566 8.22855 16.7257 8.26652 15.6383C8.28551 15.0947 8.4256 14.5979 8.68679 14.1481C8.93732 13.6979 9.23743 13.3561 9.58711 13.1229L8.51577 13.0855L8.57719 11.3265L16.5723 11.6057L16.5109 13.3647L15.4395 13.3272C15.7721 13.5843 16.053 13.9464 16.2822 14.4133C16.5007 14.8799 16.6004 15.385 16.5815 15.9287ZM14.1983 17.2383C14.7043 16.8077 14.9694 16.246 14.9936 15.553C15.0178 14.8601 14.7925 14.2812 14.3178 13.8164C13.8431 13.3515 13.2432 13.1065 12.5184 13.0812C11.7935 13.0558 11.178 13.2585 10.672 13.6891C10.166 14.1197 9.90091 14.6814 9.87672 15.3744C9.85252 16.0673 10.0778 16.6461 10.5525 17.111C11.0273 17.5759 11.6271 17.8209 12.352 17.8462C13.0768 17.8716 13.6923 17.6689 14.1983 17.2383Z" fill="white"/>
<path d="M16.681 4.8366C16.6207 5.69849 16.3604 6.43947 15.9 7.05953C15.429 7.67885 14.7835 8.04004 13.9637 8.1431L14.0898 6.33951C14.7872 6.15303 15.1667 5.61821 15.2285 4.73503C15.2521 4.24482 15.1717 3.86495 14.9874 3.59544C14.8038 3.31528 14.5471 3.16367 14.2173 3.14061C13.8768 3.1168 13.6075 3.22094 13.4095 3.45302C13.2009 3.68436 13.0809 4.02349 13.0497 4.4704L12.9838 5.4121L11.691 5.32169L11.7546 4.41192C11.7806 4.03949 11.7213 3.74129 11.5765 3.51732C11.4212 3.2926 11.1839 3.16908 10.8647 3.14676C10.5561 3.12518 10.3085 3.22548 10.1219 3.44767C9.9246 3.66912 9.81183 3.98202 9.78356 4.38636C9.72775 5.18441 10.0173 5.70722 10.6523 5.95478L10.5295 7.71049C9.74261 7.49508 9.17351 7.07035 8.82222 6.4363C8.47167 5.79161 8.32467 5.06492 8.38122 4.25622C8.44744 3.3092 8.72187 2.59594 9.20449 2.11644C9.67647 1.63619 10.2264 1.41802 10.8542 1.46192C11.599 1.51401 12.1376 1.84037 12.4698 2.44101C12.93 1.67123 13.5963 1.31685 14.4688 1.37786C15.1286 1.42399 15.6827 1.75679 16.1312 2.37626C16.5699 2.98434 16.7531 3.80445 16.681 4.8366Z" fill="white"/>
</svg>
