<svg width="23" height="22" viewBox="0 0 23 22" fill="none" xmlns="http://www.w3.org/2000/svg">
<path d="M20.1618 0H2.38406C2.08938 0 1.80676 0.116448 1.59839 0.323727C1.39001 0.531005 1.27295 0.812136 1.27295 1.10527V3.96793C1.27295 4.54598 1.50962 5.11409 1.92073 5.52304L7.93962 11.5103V19.8949C7.93983 20.0832 7.98837 20.2683 8.08062 20.4328C8.17286 20.5972 8.30578 20.7355 8.46677 20.8346C8.62777 20.9336 8.81152 20.9902 9.00062 20.9988C9.18972 21.0075 9.37792 20.968 9.54739 20.8841L13.9918 18.6736C14.3685 18.4857 14.6063 18.1032 14.6063 17.6843V11.5103L20.6252 5.52304C21.0363 5.11409 21.2729 4.54598 21.2729 3.96793V1.10527C21.2729 0.812136 21.1559 0.531005 20.9475 0.323727C20.7391 0.116448 20.4565 0 20.1618 0Z" fill="#D9FF5A"/>
</svg>
